<svg width="1440" height="81" viewBox="0 0 1440 81" fill="none" xmlns="http://www.w3.org/2000/svg">
<g clip-path="url(#clip0_650_440)">
<path d="M1658.92 4.05905C1651.15 1.3307 1643.28 -0.910431 1635.92 -5.1004C1624.12 -11.7264 1615.04 -25.2707 1604.45 -34.7225C1580.65 -55.9647 1554.63 -65.5139 1529.21 -42.8101C1528.5 -42.2254 1527.9 -41.6408 1527.19 -40.9587C1523.26 -36.7688 1519.53 -32.4813 1515.59 -28.1939C1511.76 -24.004 1507.63 -20.3012 1502.89 -18.4498C1494.01 -11.7264 1484.43 -7.43896 1473.33 -9.87499C1465.16 -11.6289 1458.41 -15.7215 1451.85 -20.9833C1441.87 -24.881 1433.19 -33.2608 1422.8 -35.7943C1412.62 -38.2303 1402.43 -34.1378 1392.85 -30.1428C1380.85 -25.0758 1368.04 -26.6349 1355.63 -25.2707C1344.13 -24.004 1333.54 -23.4193 1322.04 -24.686C1310.65 -25.9528 1300.16 -25.4656 1288.76 -24.1014C1266.37 -21.3731 1243.88 -20.5935 1221.39 -22.25C1210.49 -23.0295 1200 -20.3012 1189.21 -19.3268C1177.61 -18.2549 1167.02 -23.3219 1155.32 -20.3986C1151.79 -19.5217 1148.26 -18.3524 1144.63 -17.7677C1141.71 -17.7677 1138.68 -17.7677 1135.76 -17.7677C1130.61 -19.0345 1125.97 -22.7372 1121.74 -26.5374C1111.85 -35.3071 1103.08 -46.318 1093.19 -55.1851C1083.11 -64.2471 1071.81 -71.068 1060.01 -74.5759C1046.8 -78.3761 1033.48 -73.9912 1020.98 -68.2422C995.157 -56.4518 972.867 -35.5995 945.735 -28.5837C924.958 -23.127 903.475 -22.8347 882.294 -21.373C880.58 -21.7628 878.966 -22.1526 877.251 -22.6398C867.468 -25.3681 858.088 -29.9479 848.405 -33.1634C840.538 -35.6969 833.377 -41.0562 825.308 -41.8357C805.237 -43.6871 786.376 -29.0709 767.213 -24.3937C757.732 -22.1526 747.646 -22.5424 738.064 -22.5424C726.465 -22.5424 714.967 -21.7628 703.368 -20.4961C697.115 -19.814 690.963 -18.937 684.709 -18.06C660.503 -18.06 636.196 -18.06 611.989 -18.06C611.384 -18.2549 610.779 -18.4498 610.174 -18.6447C601.096 -21.8603 594.137 -31.1172 584.959 -34.3327C564.686 -41.3485 545.623 -30.2402 525.855 -25.2707C511.532 -21.6654 497.311 -21.0807 483.09 -21.6654C463.826 -31.5069 443.25 -40.569 422.877 -34.1378C412.488 -30.8248 401.898 -29.2658 391.408 -27.0246C378.902 -24.2963 365.79 -21.6654 353.081 -21.0807C345.819 -20.7884 338.658 -19.2294 331.396 -18.1575C306.081 -18.1575 280.664 -18.1575 255.348 -18.1575C252.524 -18.5473 249.7 -18.8396 246.876 -19.0345C235.378 -19.7166 223.98 -19.6191 212.482 -18.1575C99.0148 -18.1575 -134.678 0.161407 -130.442 0.25885C-78.0955 1.62302 -25.85 2.40258 26.4964 2.98723C-24.8414 2.79234 -76.8852 2.30511 -130.543 0.940933C-122.776 3.66929 -114.909 5.91045 -107.547 10.1004C-95.746 16.7264 -86.6686 30.2707 -76.0783 39.7225C-52.2753 60.9647 -26.2534 70.5139 -0.83667 47.8101C-0.130646 47.2255 0.474518 46.6408 1.18054 45.9587C5.11407 41.7688 8.8459 37.4814 12.7794 33.1939C16.6121 29.004 20.7474 25.3012 25.4878 23.4498C34.3635 16.7264 43.9452 12.439 55.0398 14.875C63.2095 16.629 69.9671 20.7215 76.523 25.9833C86.5082 29.8809 95.1821 38.2609 105.571 40.7943C115.758 43.2304 125.944 39.1379 135.526 35.1428C147.529 30.0758 160.338 31.6349 172.744 30.2707C184.242 29.004 194.832 28.4193 206.33 29.6861C217.727 30.9528 228.217 30.4656 239.614 29.1014C262.005 26.3731 284.497 25.5935 306.988 27.25C317.881 28.0296 328.371 25.3012 339.163 24.3268C350.762 23.255 361.352 28.3219 373.052 25.3987C376.582 24.5217 380.112 23.3524 383.743 22.7678C386.668 22.7678 389.694 22.7678 392.619 22.7678C397.762 24.0345 402.402 27.7373 406.638 31.5375C416.522 40.3072 425.297 51.318 435.181 60.1851C445.267 69.2471 456.564 76.068 468.364 79.5759C481.577 83.3761 494.891 78.9913 507.397 73.2422C533.218 61.4519 555.508 40.5995 582.639 33.5837C603.416 28.127 624.899 27.8347 646.08 26.3731C647.794 26.7628 649.408 27.1526 651.123 27.6398C660.906 30.3682 670.286 34.9479 679.969 38.1634C687.836 40.6969 694.997 46.0562 703.066 46.8357C723.137 48.6871 741.998 34.0709 761.161 29.3938C770.642 27.1526 780.728 27.5424 790.31 27.5424C801.909 27.5424 813.407 26.7628 825.006 25.4961C831.259 24.814 837.411 23.937 843.665 23.0601C867.871 23.0601 892.178 23.0601 916.385 23.0601C916.99 23.255 917.595 23.4498 918.2 23.6447C927.278 26.8603 934.237 36.1172 943.415 39.3327C963.688 46.3485 982.751 35.2402 1002.52 30.2707C1016.84 26.6654 1031.06 26.0808 1045.28 26.6654C1064.55 36.507 1085.12 45.569 1105.5 39.1379C1115.89 35.8249 1126.48 34.2658 1136.97 32.0247C1149.47 29.2963 1162.58 26.6654 1175.29 26.0808C1182.55 25.7884 1189.72 24.2294 1196.98 23.1575C1222.29 23.1575 1247.71 23.1575 1273.03 23.1575C1275.85 23.5473 1278.67 23.8396 1281.5 24.0345C1293 24.7166 1304.39 24.6191 1315.89 23.1575C1429.36 23.1575 1663.05 4.83861 1658.82 4.74117C1606.47 3.37699 1554.12 2.59744 1501.88 2.01279C1553.32 2.11024 1605.36 2.69487 1658.92 4.05905Z" fill="#600000"/>
<path d="M1171.65 13.0999C1180.83 11.2585 1187.89 10.8709 1195.85 11.5493C1201.8 10.9678 1207.75 10.5802 1214.2 10.774C1224.69 11.1616 1235.17 12.3246 1245.56 12.9061C1247.07 13.003 1248.48 13.0999 1249.9 13.0999C1259.78 12.8091 1269.86 12.7122 1279.94 12.6153C1286.8 12.3246 1293.65 11.9369 1300.61 11.7431C1303.03 11.6462 1305.35 11.6462 1307.77 11.5493C1310.49 11.3554 1313.21 11.0647 1316.04 10.774C1323.7 9.90176 1331.87 8.83571 1340.44 8.54497C1348.3 8.25423 1355.36 8.44805 1362.62 9.22336C1368.17 9.80484 1374.72 10.8709 1381.07 10.774C1386.92 10.6771 1392.06 10.1925 1397.41 9.70792C1407.69 8.73879 1418.38 7.96347 1429.47 7.57581C1434.21 7.4789 1439.05 7.382 1443.79 7.28508C1449.03 7.09126 1454.17 6.99435 1459.41 6.99435C1459.82 6.99435 1460.32 6.99435 1460.72 6.99435C1462.14 6.89744 1463.55 6.89744 1464.76 6.80052C1486.44 5.9283 1508.31 5.73448 1530.19 5.44374C1546.33 5.24991 1562.46 4.86223 1578.59 4.95914C1595.73 5.05606 1612.27 5.15298 1629.21 4.47458C1641.2 3.99001 1653.1 3.31162 1665 2.92397C1643.52 2.4394 1621.85 0.113486 1600.47 -0.467995C1577.08 -1.14639 1557.52 -6.37972 1534.03 -4.44145C1528.88 -4.0538 1524.65 -2.98777 1520.31 -2.11554C1507.41 -2.11554 1494.5 -2.01863 1481.6 -1.92171C1477.56 -2.21245 1473.53 -2.40629 1469.4 -2.30938C1464.35 -2.21246 1459.41 -2.11554 1454.47 -2.11554C1441.77 -0.855668 1428.66 0.0165672 1416.86 -1.53405C1405.37 -2.98775 1396.8 -6.96123 1387.52 -10.2563C1385 -9.09332 1382.38 -8.12416 1379.66 -7.34885C1374.62 -3.85996 1368.37 -3.85998 1357.78 -3.47233C1344.47 -2.98776 1331.46 -2.11554 1318.16 -1.72788C1302.53 -1.24331 1286.7 -1.24331 1270.97 -0.855658C1259.17 -2.11553 1247.68 -3.85996 1237.19 -5.79823C1235.68 -6.08897 1233.76 -6.2828 1231.65 -6.47663C1230.44 -6.57354 1229.23 -6.57354 1227.92 -6.67046C1214 -7.15503 1202.91 -3.47232 1189.4 -3.08467C1179.72 -2.79392 1170.24 -3.76308 1160.87 -4.73222C1152.5 -5.02296 1144.13 -5.11985 1136.06 -5.31367C1128.5 -5.5075 1120.74 -5.99209 1113.07 -6.28283C1107.63 -6.089 1102.28 -5.70133 1096.84 -5.31367C1095.63 -5.21676 1094.72 -5.70133 1094.52 -6.1859C1093.31 -6.08898 1092.1 -6.089 1090.89 -5.89517C1053.59 -2.40628 1018.5 -0.0803537 980.486 -1.04949C953.464 -1.72788 926.241 -1.14641 899.119 -0.75876C889.036 -1.34024 878.953 -1.92171 868.971 -2.40627C844.773 -3.66615 820.575 -5.21676 796.376 -5.99207C774.698 -6.67046 752.92 -5.70132 731.242 -5.79823C712.186 -5.89515 693.331 -4.7322 674.376 -3.2785C656.933 -3.47232 639.389 -3.66613 621.946 -4.05379C603.494 -4.44144 584.841 -5.4106 566.289 -5.21678C558.021 -5.11986 549.854 -4.63528 541.587 -4.44145C529.991 -4.15071 518.598 -5.70133 507.104 -5.31367C489.459 -4.82911 473.024 -3.37543 455.581 -3.1816C424.325 -4.15074 391.859 -5.50751 361.106 -4.82911C342.05 -4.44146 325.918 -1.34021 306.559 -1.63095C287.402 -1.92169 271.774 -3.76308 252.113 -3.1816C233.056 -2.69703 213.798 -2.01861 194.742 -1.14639C191.616 -1.14639 188.39 -1.14639 185.264 -1.14639C150.277 -0.855646 115.29 0.501145 80.4044 2.14868C32.0075 2.24559 -16.4902 2.34247 -64.8872 2.5363C-76.6839 2.73013 -88.5815 3.02087 -100.378 3.40853C-121.451 4.08692 -142.726 5.05606 -164 5.3468C-110.461 6.12211 -56.9218 8.15732 -3.08028 8.06041C41.6869 7.9635 86.2523 6.8005 131.019 6.50976C173.468 6.31593 215.916 6.60667 257.961 8.25421C258.061 8.25421 258.162 8.25421 258.263 8.25421C374.012 8.54494 489.762 8.73879 605.41 8.8357C609.645 9.02953 613.879 9.32029 618.114 9.61103C651.185 11.937 686.576 10.0956 719.849 9.51409C727.108 9.41718 734.368 9.22336 741.627 9.02953C820.07 9.02953 898.413 9.02953 976.856 9.02953C979.377 9.12645 981.797 9.32026 984.318 9.51409C1017.29 12.1308 1050.96 10.4832 1084.24 10.774C1101.88 9.80484 1119.73 9.61101 1136.77 11.4524C1141 11.9369 1144.93 12.6153 1148.97 13.2937C1156.33 13.2937 1164.09 13.2937 1171.65 13.0999Z" fill="#B52126"/>
</g>
<defs>
<clipPath id="clip0_650_440">
<rect width="1440" height="81" fill="white"/>
</clipPath>
</defs>
</svg>
