<svg width="1440" height="81" viewBox="0 0 1440 81" fill="none" xmlns="http://www.w3.org/2000/svg">
<g clip-path="url(#clip0_650_439)">
<path d="M1658.92 80.0591C1651.15 77.3307 1643.28 75.0896 1635.92 70.8996C1624.12 64.2736 1615.04 50.7293 1604.45 41.2775C1580.65 20.0353 1554.63 10.4861 1529.21 33.1899C1528.5 33.7746 1527.9 34.3592 1527.19 35.0413C1523.26 39.2312 1519.53 43.5187 1515.59 47.8061C1511.76 51.996 1507.63 55.6988 1502.89 57.5502C1494.01 64.2736 1484.43 68.561 1473.33 66.125C1465.16 64.3711 1458.41 60.2785 1451.85 55.0167C1441.87 51.119 1433.19 42.7392 1422.8 40.2057C1412.62 37.7697 1402.43 41.8622 1392.85 45.8572C1380.85 50.9242 1368.04 49.3651 1355.63 50.7293C1344.13 51.996 1333.54 52.5807 1322.04 51.314C1310.65 50.0472 1300.16 50.5344 1288.76 51.8986C1266.37 54.6269 1243.88 55.4065 1221.39 53.75C1210.49 52.9705 1200 55.6988 1189.21 56.6732C1177.61 57.7451 1167.02 52.6781 1155.32 55.6014C1151.79 56.4783 1148.26 57.6476 1144.63 58.2323C1141.71 58.2323 1138.68 58.2323 1135.76 58.2323C1130.61 56.9655 1125.97 53.2628 1121.74 49.4626C1111.85 40.6929 1103.08 29.682 1093.19 20.8149C1083.11 11.7529 1071.81 4.932 1060.01 1.42412C1046.8 -2.37609 1033.48 2.00876 1020.98 7.75778C995.157 19.5482 972.867 40.4005 945.735 47.4163C924.958 52.873 903.475 53.1653 882.294 54.627C880.58 54.2372 878.966 53.8474 877.251 53.3602C867.468 50.6319 858.088 46.0521 848.405 42.8366C840.538 40.3031 833.377 34.9438 825.308 34.1643C805.237 32.3129 786.376 46.9291 767.213 51.6063C757.732 53.8474 747.646 53.4576 738.064 53.4576C726.465 53.4576 714.967 54.2372 703.368 55.5039C697.115 56.186 690.963 57.063 684.709 57.94C660.503 57.94 636.196 57.94 611.989 57.94C611.384 57.7451 610.779 57.5502 610.174 57.3553C601.096 54.1397 594.137 44.8828 584.959 41.6673C564.686 34.6515 545.623 45.7598 525.855 50.7293C511.532 54.3346 497.311 54.9193 483.09 54.3346C463.826 44.4931 443.25 35.431 422.877 41.8622C412.488 45.1752 401.898 46.7342 391.408 48.9754C378.902 51.7037 365.79 54.3346 353.081 54.9193C345.819 55.2116 338.658 56.7706 331.396 57.8425C306.081 57.8425 280.664 57.8425 255.348 57.8425C252.524 57.4527 249.7 57.1604 246.876 56.9655C235.378 56.2834 223.98 56.3809 212.482 57.8425C99.0148 57.8425 -134.678 76.1614 -130.442 76.2589C-78.0955 77.623 -25.85 78.4026 26.4964 78.9872C-24.8414 78.7923 -76.8852 78.3051 -130.543 76.9409C-122.776 79.6693 -114.909 81.9105 -107.547 86.1004C-95.746 92.7264 -86.6686 106.271 -76.0783 115.723C-52.2753 136.965 -26.2534 146.514 -0.83667 123.81C-0.130646 123.225 0.474518 122.641 1.18054 121.959C5.11407 117.769 8.8459 113.481 12.7794 109.194C16.6121 105.004 20.7474 101.301 25.4878 99.4498C34.3635 92.7264 43.9452 88.439 55.0398 90.875C63.2095 92.629 69.9671 96.7215 76.523 101.983C86.5082 105.881 95.1821 114.261 105.571 116.794C115.758 119.23 125.944 115.138 135.526 111.143C147.529 106.076 160.338 107.635 172.744 106.271C184.242 105.004 194.832 104.419 206.33 105.686C217.727 106.953 228.217 106.466 239.614 105.101C262.005 102.373 284.497 101.594 306.988 103.25C317.881 104.03 328.371 101.301 339.163 100.327C350.762 99.255 361.352 104.322 373.052 101.399C376.582 100.522 380.112 99.3524 383.743 98.7678C386.668 98.7678 389.694 98.7678 392.619 98.7678C397.762 100.034 402.402 103.737 406.638 107.537C416.522 116.307 425.297 127.318 435.181 136.185C445.267 145.247 456.564 152.068 468.364 155.576C481.577 159.376 494.891 154.991 507.397 149.242C533.218 137.452 555.508 116.599 582.639 109.584C603.416 104.127 624.899 103.835 646.08 102.373C647.794 102.763 649.408 103.153 651.123 103.64C660.906 106.368 670.286 110.948 679.969 114.163C687.836 116.697 694.997 122.056 703.066 122.836C723.137 124.687 741.998 110.071 761.161 105.394C770.642 103.153 780.728 103.542 790.31 103.542C801.909 103.542 813.407 102.763 825.006 101.496C831.259 100.814 837.411 99.937 843.665 99.0601C867.871 99.0601 892.178 99.0601 916.385 99.0601C916.99 99.255 917.595 99.4498 918.2 99.6447C927.278 102.86 934.237 112.117 943.415 115.333C963.688 122.349 982.751 111.24 1002.52 106.271C1016.84 102.665 1031.06 102.081 1045.28 102.665C1064.55 112.507 1085.12 121.569 1105.5 115.138C1115.89 111.825 1126.48 110.266 1136.97 108.025C1149.47 105.296 1162.58 102.665 1175.29 102.081C1182.55 101.788 1189.72 100.229 1196.98 99.1575C1222.29 99.1575 1247.71 99.1575 1273.03 99.1575C1275.85 99.5473 1278.67 99.8396 1281.5 100.035C1293 100.717 1304.39 100.619 1315.89 99.1575C1429.36 99.1575 1663.05 80.8386 1658.82 80.7412C1606.47 79.377 1554.12 78.5974 1501.88 78.0128C1553.32 78.1102 1605.36 78.6949 1658.92 80.0591Z" fill="#600000"/>
<path d="M1171.65 89.0999C1180.83 87.2585 1187.89 86.8709 1195.85 87.5493C1201.8 86.9678 1207.75 86.5802 1214.2 86.774C1224.69 87.1616 1235.17 88.3246 1245.56 88.9061C1247.07 89.003 1248.48 89.0999 1249.9 89.0999C1259.78 88.8091 1269.86 88.7122 1279.94 88.6153C1286.8 88.3246 1293.65 87.9369 1300.61 87.7431C1303.03 87.6462 1305.35 87.6462 1307.77 87.5493C1310.49 87.3554 1313.21 87.0647 1316.04 86.774C1323.7 85.9018 1331.87 84.8357 1340.44 84.545C1348.3 84.2542 1355.36 84.4481 1362.62 85.2234C1368.17 85.8048 1374.72 86.8709 1381.07 86.774C1386.92 86.6771 1392.06 86.1925 1397.41 85.7079C1407.69 84.7388 1418.38 83.9635 1429.47 83.5758C1434.21 83.4789 1439.05 83.382 1443.79 83.2851C1449.03 83.0913 1454.17 82.9944 1459.41 82.9944C1459.82 82.9944 1460.32 82.9944 1460.72 82.9944C1462.14 82.8974 1463.55 82.8974 1464.76 82.8005C1486.44 81.9283 1508.31 81.7345 1530.19 81.4437C1546.33 81.2499 1562.46 80.8622 1578.59 80.9591C1595.73 81.0561 1612.27 81.153 1629.21 80.4746C1641.2 79.99 1653.1 79.3116 1665 78.924C1643.52 78.4394 1621.85 76.1135 1600.47 75.532C1577.08 74.8536 1557.52 69.6203 1534.03 71.5586C1528.88 71.9462 1524.65 73.0122 1520.31 73.8845C1507.41 73.8845 1494.5 73.9814 1481.6 74.0783C1477.56 73.7875 1473.53 73.5937 1469.4 73.6906C1464.35 73.7875 1459.41 73.8845 1454.47 73.8845C1441.77 75.1443 1428.66 76.0166 1416.86 74.466C1405.37 73.0122 1396.8 69.0388 1387.52 65.7437C1385 66.9067 1382.38 67.8758 1379.66 68.6512C1374.62 72.14 1368.37 72.14 1357.78 72.5277C1344.47 73.0122 1331.46 73.8845 1318.16 74.2721C1302.53 74.7567 1286.7 74.7567 1270.97 75.1443C1259.17 73.8845 1247.68 72.14 1237.19 70.2018C1235.68 69.911 1233.76 69.7172 1231.65 69.5234C1230.44 69.4265 1229.23 69.4265 1227.92 69.3295C1214 68.845 1202.91 72.5277 1189.4 72.9153C1179.72 73.2061 1170.24 72.2369 1160.87 71.2678C1152.5 70.977 1144.13 70.8802 1136.06 70.6863C1128.5 70.4925 1120.74 70.0079 1113.07 69.7172C1107.63 69.911 1102.28 70.2987 1096.84 70.6863C1095.63 70.7832 1094.72 70.2987 1094.52 69.8141C1093.31 69.911 1092.1 69.911 1090.89 70.1048C1053.59 73.5937 1018.5 75.9196 980.486 74.9505C953.464 74.2721 926.241 74.8536 899.119 75.2412C889.036 74.6598 878.953 74.0783 868.971 73.5937C844.773 72.3338 820.575 70.7832 796.376 70.0079C774.698 69.3295 752.92 70.2987 731.242 70.2018C712.186 70.1049 693.331 71.2678 674.376 72.7215C656.933 72.5277 639.389 72.3339 621.946 71.9462C603.494 71.5586 584.841 70.5894 566.289 70.7832C558.021 70.8801 549.854 71.3647 541.587 71.5586C529.991 71.8493 518.598 70.2987 507.104 70.6863C489.459 71.1709 473.024 72.6246 455.581 72.8184C424.325 71.8493 391.859 70.4925 361.106 71.1709C342.05 71.5585 325.918 74.6598 306.559 74.3691C287.402 74.0783 271.774 72.2369 252.113 72.8184C233.056 73.303 213.798 73.9814 194.742 74.8536C191.616 74.8536 188.39 74.8536 185.264 74.8536C150.277 75.1444 115.29 76.5011 80.4044 78.1487C32.0075 78.2456 -16.4902 78.3425 -64.8872 78.5363C-76.6839 78.7301 -88.5815 79.0209 -100.378 79.4085C-121.451 80.0869 -142.726 81.0561 -164 81.3468C-110.461 82.1221 -56.9218 84.1573 -3.08028 84.0604C41.6869 83.9635 86.2523 82.8005 131.019 82.5098C173.468 82.3159 215.916 82.6067 257.961 84.2542C258.061 84.2542 258.162 84.2542 258.263 84.2542C374.012 84.5449 489.762 84.7388 605.41 84.8357C609.645 85.0295 613.879 85.3203 618.114 85.611C651.185 87.937 686.576 86.0956 719.849 85.5141C727.108 85.4172 734.368 85.2234 741.627 85.0295C820.07 85.0295 898.413 85.0295 976.856 85.0295C979.377 85.1264 981.797 85.3203 984.318 85.5141C1017.29 88.1308 1050.96 86.4832 1084.24 86.774C1101.88 85.8048 1119.73 85.611 1136.77 87.4524C1141 87.9369 1144.93 88.6153 1148.97 89.2937C1156.33 89.2937 1164.09 89.2937 1171.65 89.0999Z" fill="#B52126"/>
</g>
<defs>
<clipPath id="clip0_650_439">
<rect width="1440" height="81" fill="white"/>
</clipPath>
</defs>
</svg>
