<svg width="1440" height="534" viewBox="0 0 1440 534" fill="none" xmlns="http://www.w3.org/2000/svg">
<g clip-path="url(#clip0_650_416)">
<g clip-path="url(#clip1_650_416)">
<path d="M397.336 37.2213C388.885 29.7991 382.383 28.593 375.047 31.0052C369.567 28.7785 364.088 27.0158 358.144 28.0363C348.485 29.6135 338.826 34.0669 329.26 36.4791C327.867 36.8502 326.567 37.0358 325.266 37.2213C316.165 36.108 306.877 35.7369 297.59 35.3658C291.275 34.0669 284.959 32.5824 278.551 31.7474C276.322 31.4691 274.186 31.2836 271.957 31.0052C269.45 30.0774 266.942 29.0569 264.342 27.8508C257.283 24.5108 249.76 20.243 241.866 19.1296C234.622 18.1091 228.121 18.7585 221.434 21.913C216.326 24.3252 210.289 28.4074 204.438 27.9435C199.052 27.5724 194.315 25.7169 189.393 23.7685C179.92 20.0574 170.075 16.8102 159.859 15.5113C155.494 14.9546 151.036 14.5835 146.671 14.3052C141.842 13.4702 137.105 13.1919 132.276 13.0063C131.904 12.9135 131.44 12.9135 131.068 12.8208C129.768 12.6352 128.468 12.3569 127.353 12.1713C107.386 8.73853 87.2321 7.90353 67.0786 6.69741C52.2189 5.86242 37.3593 4.37796 22.4995 4.84185C6.71106 5.30574 -8.52014 5.76963 -24.1229 2.89352C-35.1748 0.852406 -46.1339 -1.55981 -57.0929 -3.32259C-37.3109 -5.08537 -17.3431 -14.3632 2.34607 -16.6826C23.8927 -19.1876 41.91 -39.8771 63.5496 -32.3621C68.286 -30.6921 72.1868 -26.7954 76.1803 -23.0843C88.0681 -22.9915 99.9558 -22.7132 111.844 -22.4348C115.558 -23.5482 119.274 -24.2904 123.081 -23.9193C127.725 -23.4554 132.276 -23.1771 136.827 -22.9915C148.529 -18.0743 160.602 -14.6415 171.468 -20.6721C182.056 -26.5171 189.95 -41.9182 198.494 -55.0927C200.816 -50.361 203.231 -46.6499 205.739 -43.681C210.382 -29.8571 216.14 -30.0426 225.892 -28.4654C238.151 -26.4243 250.132 -23.0843 262.391 -21.5071C276.787 -19.7443 291.368 -19.466 305.856 -17.9815C316.722 -22.806 327.31 -30.0426 336.969 -37.2793C338.362 -38.3926 340.126 -39.2276 342.076 -39.8771C343.191 -40.0626 344.305 -40.341 345.513 -40.5265C358.329 -42.4749 368.545 -28.0015 380.99 -26.4243C389.906 -25.311 398.636 -29.1148 407.273 -33.0115C414.982 -34.1249 422.691 -34.4032 430.12 -35.2382C437.086 -36.0732 444.237 -38.1143 451.296 -39.2276C456.311 -38.2999 461.233 -37.001 466.248 -35.2382C467.363 -34.8671 468.198 -36.8154 468.384 -38.8565C469.499 -38.5782 470.613 -38.2999 471.728 -37.9287C506.091 -24.3832 538.411 -15.1054 573.424 -19.0021C598.314 -21.7854 623.39 -19.4659 648.373 -17.7032C657.66 -19.9298 666.947 -22.0637 676.142 -24.1976C698.431 -29.3004 720.721 -35.331 743.01 -38.3926C762.978 -41.176 783.039 -37.2793 803.007 -37.6504C820.56 -38.0215 837.927 -33.3826 855.387 -27.816C871.454 -28.5582 887.614 -29.486 903.681 -30.8776C920.677 -32.3621 937.859 -36.0732 954.947 -35.331C962.563 -35.0526 970.086 -33.0115 977.701 -32.1765C988.382 -30.8776 998.876 -36.9082 1009.46 -35.7949C1026 -33.9393 1041.13 -28.0015 1057.2 -27.1665C1085.99 -31.0632 1115.9 -36.2587 1144.22 -33.7537C1161.78 -32.1765 1176.64 -20.1154 1194.47 -21.3215C1212.11 -22.5276 1226.51 -29.5787 1244.62 -27.5376C1262.17 -25.4965 1279.91 -22.8987 1297.46 -19.6515C1300.34 -19.5587 1303.31 -19.5587 1306.19 -19.466C1338.42 -18.4454 1370.65 -12.8787 1402.78 -6.38427C1447.36 -6.10593 1492.03 -5.64204 1536.61 -4.9926C1547.57 -4.06482 1558.53 -3.04426 1569.4 -1.46704C1588.81 1.3163 1608.31 5.02741 1628 6.04797C1578.68 9.10963 1529.37 16.9958 1479.77 16.7174C1438.54 16.4391 1397.49 11.7074 1356.25 10.7796C1317.15 9.85186 1278.05 11.2435 1239.33 17.6452C1239.23 17.6452 1239.14 17.738 1239.05 17.738C1132.43 18.7585 1025.81 19.5935 919.284 19.9646C915.383 20.8924 911.483 21.8202 907.582 23.0263C877.119 32.0258 844.521 25.0674 813.873 22.4697C807.186 21.913 800.499 21.1708 793.812 20.4285C721.557 20.5213 649.394 20.5213 577.139 20.243C574.817 20.7996 572.588 21.4491 570.266 22.1913C539.897 32.3969 508.877 26.1808 478.229 27.2941C461.976 23.3974 445.537 22.5624 429.842 29.9847C425.941 31.8402 422.319 34.5308 418.604 37.4069C411.453 37.9636 404.302 37.8708 397.336 37.2213Z" fill="#620408"/>
<path d="M36.2446 -15.1986C47.7609 -16.0336 59.2771 -16.3119 70.7935 -16.4975C72.6509 -15.848 74.4155 -15.1986 76.2731 -14.5491C88.1608 -14.5491 100.049 -14.3636 111.936 -14.2708C115.651 -14.7347 119.366 -15.013 123.174 -14.8275C125.867 -14.7347 128.375 -14.6419 130.975 -14.6419C131.068 -14.5491 131.254 -14.4563 131.44 -14.4563C145.928 -10.6525 160.045 -11.5802 174.719 -13.4358C191.9 -15.5697 207.874 -15.1986 224.963 -12.6008C258.305 -7.49801 292.018 -12.7863 325.545 -12.9719C343.191 -13.0647 360.93 -12.7863 378.576 -12.1369C396.314 -11.4875 413.217 -14.4563 430.77 -15.2913C455.66 -16.4975 480.458 -16.7758 505.348 -15.848C527.823 -13.1575 550.02 -11.8586 573.517 -12.8791C598.407 -13.9925 623.482 -13.0647 648.465 -12.3225C657.753 -13.2502 667.04 -14.0852 676.234 -14.9202C698.524 -16.9613 720.814 -19.4664 743.103 -20.6725C763.071 -21.7858 783.132 -20.2086 803.099 -20.3941C820.652 -20.5797 838.02 -18.6314 855.48 -16.4047C871.547 -16.683 887.707 -17.0541 903.774 -17.6108C920.77 -18.2602 937.951 -19.7447 955.04 -19.4664C962.656 -19.3736 970.178 -18.5386 977.794 -18.1675C988.474 -17.6108 998.969 -20.1158 1009.56 -19.6519C1025.81 -18.9097 1040.95 -16.4975 1057.01 -16.1263C1085.81 -17.7036 1115.71 -19.8375 1144.04 -18.8169C1145.71 -18.7241 1147.38 -18.6314 1149.05 -18.4458C1156.48 -17.2397 1163.91 -16.3119 1171.34 -15.4769C1177.75 -14.5491 1184.16 -13.8069 1191.03 -13.7141C1213.41 -12.1369 1235.98 -11.8586 1258.46 -11.7658C1270.53 -11.673 1282.6 -11.673 1294.77 -11.4875C1295.79 -11.9513 1296.91 -12.3225 1298.02 -12.6936C1299.69 -13.343 1301.74 -12.6008 1303.69 -11.3019C1309.91 -11.1163 1316.04 -10.9308 1322.17 -10.5597C1343.71 -9.35357 1364.98 -6.29189 1386.34 -3.50856C1416.53 0.480892 1446.71 2.70756 1477.08 4.09923C1468.63 3.91367 1460.27 3.63534 1451.82 3.17145C1450.89 3.17145 1450.05 3.17145 1449.13 3.17145C1422.38 3.17145 1395.91 2.42922 1369.35 2.15089C1367.49 2.15089 1366.56 1.87256 1366.28 1.59422C1348.08 1.687 1329.88 1.77978 1311.67 1.77978C1311.58 1.87256 1311.49 2.05811 1311.3 2.15089C1282.88 19.5004 1280.65 61.2504 1278.7 91.2177C1276.2 127.865 1277.5 164.79 1279.54 201.438C1279.54 201.716 1279.63 201.902 1279.54 202.087C1279.54 202.366 1279.54 202.737 1279.63 203.015C1280.75 222.127 1290.13 353.037 1264.87 349.975C1252.14 348.491 1251.68 314.905 1251.21 307.854C1249.17 276.031 1254.84 243.744 1258.09 212.2C1261.89 175.924 1261.43 140.112 1260.69 103.743C1260.04 69.6932 1261.15 35.8293 1256.51 1.96534C1230.5 2.05811 1204.4 2.24367 1178.4 2.33644C1168.65 49.2821 1170.6 99.011 1168.18 146.699C1167.07 169.429 1166.23 192.067 1164.28 214.705C1163.54 223.797 1163.17 249.682 1151.28 252.558C1148.5 253.208 1146.08 250.517 1144.69 248.476C1132.06 229.735 1134.29 205.427 1133.73 183.81C1133.08 156.904 1135.77 129.72 1136.98 102.815C1138.37 70.1571 1151.65 34.3448 1125.83 7.90312C1117.38 -0.72522 1113.85 34.8087 1113.85 35.2726C1112.83 42.8804 1110.6 50.0243 1104.66 55.0343C1103.73 55.7765 1102.06 55.8693 1101.04 55.3126C1091.75 50.8593 1086.92 41.6743 1085.06 31.6543C1083.76 24.3248 1085.06 10.037 1079.95 2.61478C1031.29 2.70756 982.531 2.89312 933.772 2.98589C919.841 22.6548 921.977 46.1276 921.698 69.4149C921.42 92.1454 923.742 115.989 922.256 138.534C921.884 144.287 920.027 182.14 907.303 166.461C899.316 156.626 897.18 140.947 897.551 128.885C899.13 85.0015 910.182 37.1282 861.145 15.4181C842.199 7.06812 809.043 -4.34356 800.592 23.5826C796.227 38.1487 804.4 55.2198 798.363 69.2293C792.79 82.0326 779.602 82.6821 769.293 74.6104C747.654 57.7248 768.179 36.4787 757.591 17.7376C752.483 8.73812 717.563 5.95479 708.461 5.67645C694.809 5.21256 682.736 6.60423 668.898 4.28478C668.154 4.19201 667.411 3.8209 666.668 3.26423C636.856 3.26423 607.044 3.26423 577.139 3.26423C574.817 3.44978 572.588 3.72812 570.266 4.00645C550.763 6.60423 539.804 4.09923 533.581 24.8815C524.015 56.7043 530.331 91.3104 531.259 123.875C532.559 167.574 533.767 211.272 535.624 254.971C536.553 275.011 539.061 463.443 511.384 454.814C490.023 448.227 491.045 407.776 490.952 391.169C490.859 348.583 494.11 306.277 497.825 263.877C501.54 221.385 498.382 180.006 498.103 137.607C498.103 132.504 498.103 127.494 498.196 122.391C496.339 105.32 494.76 88.2488 494.017 70.8993C494.481 64.5904 491.324 60.0443 484.451 57.1682C482.222 60.2298 482.501 66.1676 482.315 69.786C481.851 78.8782 482.408 88.0632 482.036 97.2482C481.108 122.205 478.229 147.163 476.928 172.027C476.092 189.284 478.693 212.757 467.269 226.952C466.434 227.972 464.576 227.508 463.647 227.23C437.829 219.808 445.444 168.409 447.023 149.297C449.066 124.896 453.153 101.145 452.596 76.5588C452.317 64.8687 450.181 53.4571 447.952 42.0454C447.395 38.0559 446.93 33.9737 446.373 29.9843C444.144 11.9853 434.392 11.0576 422.319 9.10923C421.019 9.48034 419.718 9.85146 418.418 10.2226C411.267 10.5009 404.116 10.4081 397.15 10.2226C388.699 7.25368 382.198 6.69701 374.861 7.71757C369.381 6.78979 363.901 6.14034 357.958 6.51145C357.679 6.51145 357.4 6.51145 357.215 6.60423C357.029 7.1609 356.75 7.62479 356.193 7.9959C342.726 15.6037 342.819 29.5204 342.448 43.437C342.076 59.3948 341.24 75.2599 340.497 91.2177C340.126 98.4543 342.076 131.112 329.817 131.947C314.865 132.875 313.843 106.712 313.657 97.2482C313.378 83.3315 315.515 69.5076 317.465 55.7765C320.158 37.4065 322.666 22.4692 310.871 9.85145C306.32 9.75868 301.769 9.6659 297.311 9.57312C290.996 9.01646 284.681 8.45979 278.272 8.08868C276.043 7.9959 273.907 7.90312 271.678 7.81034C269.171 7.43923 266.663 7.06812 264.063 6.51145C257.004 5.11979 249.482 3.44978 241.588 2.98589C234.343 2.61478 227.842 2.89312 221.155 4.09923C216.047 5.02701 210.01 6.69701 204.159 6.51145C198.773 6.41868 194.036 5.58367 189.114 4.84145C179.641 3.357 169.796 1.96534 159.58 1.50145C155.215 1.31589 150.757 1.13033 146.392 1.03756C141.563 0.666447 136.826 0.573668 131.997 0.48089C131.625 0.48089 131.161 0.388111 130.789 0.388111C129.489 0.295334 128.189 0.202557 127.075 0.109779C107.107 -1.28189 86.9534 -1.653 66.7998 -2.11689C51.9402 -2.488 37.0806 -3.04467 22.2208 -2.85912C6.89673 -2.67356 -7.87024 -2.488 -23.0085 -3.60134C-3.04077 -8.24023 16.2769 -13.7141 36.2446 -15.1986Z" fill="#B11313"/>
<path d="M516.585 244.023C520.207 204.964 516.214 165.162 518.721 125.917C518.814 124.247 521.229 126.196 521.322 127.216C524.851 166.461 530.052 205.799 529.866 245.23C529.681 282.155 526.244 317.411 521.879 354.058C521.786 354.707 520.858 353.872 520.858 353.409C521.229 334.482 515.935 316.297 515.099 297.463C514.449 279.928 515.007 261.466 516.585 244.023Z" fill="#CB5F62"/>
<path d="M517.886 393.767C518.257 391.911 521.043 394.138 520.765 395.53C520.393 397.292 519.929 398.962 519.557 400.632C519.093 402.302 519.093 404.158 518.35 405.735C517.793 407.034 516.307 404.9 516.214 404.436C515.285 400.911 517.143 397.2 517.886 393.767Z" fill="#CB5F62"/>
<path d="M466.434 149.761C466.712 146.606 471.17 150.318 471.263 152.08C472.099 161.265 473.028 170.45 473.492 179.728C473.864 186.965 474.049 195.964 468.291 201.067C465.691 203.387 462.44 198.284 461.976 196.335C458.632 182.048 464.948 164.327 466.434 149.761Z" fill="#CB5F62"/>
<path d="M328.517 87.5995C328.61 76.6517 331.767 65.0545 333.625 54.2922C333.996 52.1583 336.69 54.8489 336.597 56.1478C336.504 68.2089 336.225 80.27 336.225 92.3312C336.225 101.702 337.804 113.948 332.975 122.298C331.396 125.082 327.774 120.721 327.495 118.958C326.195 108.66 328.424 97.9906 328.517 87.5995Z" fill="#CB5F62"/>
<path d="M903.495 136.307C903.681 132.503 903.774 127.586 906.932 124.803C907.21 124.524 907.582 124.432 907.86 124.339C908.046 122.576 909.718 122.112 911.204 122.669C913.34 123.411 915.383 125.823 915.662 128.143C916.033 131.947 916.683 135.936 916.312 139.833C916.033 142.894 916.498 146.327 914.919 149.018C912.968 152.451 908.046 149.389 906.467 147.162C903.774 143.544 903.217 140.668 903.495 136.307Z" fill="#CB5F62"/>
<path d="M783.41 37.4991C786.94 34.4374 792.883 39.8185 794.277 42.8802C795.763 45.9419 796.877 50.1169 794.927 52.8074C795.205 56.1474 795.298 59.5802 795.205 63.1058C795.112 68.4869 792.605 71.363 787.125 69.8786C780.531 68.023 778.767 59.673 778.117 53.9208C777.559 47.7974 778.581 41.6741 783.41 37.4991Z" fill="#CB5F62"/>
<path d="M1156.76 129.628C1157.32 127.123 1160.57 129.999 1160.66 131.484C1161.68 160.801 1170.69 196.706 1154.25 223.705C1153.6 224.725 1152.3 223.055 1152.21 222.406C1146.64 191.789 1150.26 160.337 1156.76 129.628Z" fill="#CB5F62"/>
<path d="M1268.12 241.518C1268.39 239.105 1271.65 241.982 1271.74 243.28C1273.22 257.847 1274.06 272.32 1274.9 286.979C1275.55 298.019 1276.1 311.843 1269.88 321.399C1268.02 324.183 1264.68 319.822 1264.31 317.967C1259.57 293.195 1265.14 266.197 1268.12 241.518Z" fill="#CB5F62"/>
</g>
</g>
<defs>
<clipPath id="clip0_650_416">
<rect width="1440" height="534" fill="white"/>
</clipPath>
<clipPath id="clip1_650_416">
<rect width="1685" height="510" fill="white" transform="matrix(-1 0 0 1 1628 -55)"/>
</clipPath>
</defs>
</svg>
