<svg width="1440" height="46" viewBox="0 0 1440 46" fill="none" xmlns="http://www.w3.org/2000/svg">
<g clip-path="url(#clip0_650_415)">
<g clip-path="url(#clip1_650_415)">
<path d="M397.336 86.2213C388.885 78.7991 382.383 77.593 375.047 80.0052C369.567 77.7785 364.088 76.0158 358.144 77.0363C348.485 78.6135 338.826 83.0669 329.26 85.4791C327.867 85.8502 326.567 86.0358 325.266 86.2213C316.165 85.108 306.877 84.7369 297.59 84.3658C291.275 83.0669 284.959 81.5824 278.551 80.7474C276.322 80.4691 274.186 80.2836 271.957 80.0052C269.45 79.0774 266.942 78.0569 264.342 76.8508C257.283 73.5108 249.76 69.243 241.866 68.1296C234.622 67.1091 228.121 67.7585 221.434 70.913C216.326 73.3252 210.289 77.4074 204.438 76.9435C199.052 76.5724 194.315 74.7169 189.393 72.7685C179.92 69.0574 170.075 65.8102 159.859 64.5113C155.494 63.9546 151.036 63.5835 146.671 63.3052C141.842 62.4702 137.105 62.1919 132.276 62.0063C131.904 61.9135 131.44 61.9135 131.068 61.8208C129.768 61.6352 128.468 61.3569 127.353 61.1713C107.386 57.7385 87.2321 56.9035 67.0786 55.6974C52.2189 54.8624 37.3593 53.378 22.4995 53.8419C6.71106 54.3057 -8.52014 54.7696 -24.1229 51.8935C-35.1748 49.8524 -46.1339 47.4402 -57.0929 45.6774C-37.3109 43.9146 -17.3431 34.6368 2.34607 32.3174C23.8927 29.8124 41.91 9.12292 63.5496 16.6379C68.286 18.3079 72.1868 22.2046 76.1803 25.9157C88.0681 26.0085 99.9558 26.2868 111.844 26.5652C115.558 25.4518 119.274 24.7096 123.081 25.0807C127.725 25.5446 132.276 25.8229 136.827 26.0085C148.529 30.9257 160.602 34.3585 171.468 28.3279C182.056 22.4829 189.95 7.08181 198.494 -6.09265C200.816 -1.36098 203.231 2.35013 205.739 5.31903C210.382 19.1429 216.14 18.9574 225.892 20.5346C238.151 22.5757 250.132 25.9157 262.391 27.4929C276.787 29.2557 291.368 29.534 305.856 31.0185C316.722 26.194 327.31 18.9574 336.969 11.7207C338.362 10.6074 340.126 9.77236 342.076 9.12292C343.191 8.93736 344.305 8.65903 345.513 8.47347C358.329 6.52514 368.545 20.9985 380.99 22.5757C389.906 23.689 398.636 19.8852 407.273 15.9885C414.982 14.8751 422.691 14.5968 430.12 13.7618C437.086 12.9268 444.237 10.8857 451.296 9.77237C456.311 10.7001 461.233 11.999 466.248 13.7618C467.363 14.1329 468.198 12.1846 468.384 10.1435C469.499 10.4218 470.613 10.7001 471.728 11.0713C506.091 24.6168 538.411 33.8946 573.424 29.9979C598.314 27.2146 623.39 29.5341 648.373 31.2968C657.66 29.0702 666.947 26.9363 676.142 24.8024C698.431 19.6996 720.721 13.669 743.01 10.6074C762.978 7.82403 783.039 11.7207 803.007 11.3496C820.56 10.9785 837.927 15.6174 855.387 21.184C871.454 20.4418 887.614 19.514 903.681 18.1224C920.677 16.6379 937.859 12.9268 954.947 13.669C962.563 13.9474 970.086 15.9885 977.701 16.8235C988.382 18.1224 998.876 12.0918 1009.46 13.2051C1026 15.0607 1041.13 20.9985 1057.2 21.8335C1085.99 17.9368 1115.9 12.7413 1144.22 15.2463C1161.78 16.8235 1176.64 28.8846 1194.47 27.6785C1212.11 26.4724 1226.51 19.4213 1244.62 21.4624C1262.17 23.5035 1279.91 26.1013 1297.46 29.3485C1300.34 29.4413 1303.31 29.4413 1306.19 29.534C1338.42 30.5546 1370.65 36.1213 1402.78 42.6157C1447.36 42.8941 1492.03 43.358 1536.61 44.0074C1547.57 44.9352 1558.53 45.9557 1569.4 47.533C1588.81 50.3163 1608.31 54.0274 1628 55.048C1578.68 58.1096 1529.37 65.9958 1479.77 65.7174C1438.54 65.4391 1397.49 60.7074 1356.25 59.7796C1317.15 58.8519 1278.05 60.2435 1239.33 66.6452C1239.23 66.6452 1239.14 66.738 1239.05 66.738C1132.43 67.7585 1025.81 68.5935 919.284 68.9646C915.383 69.8924 911.483 70.8202 907.582 72.0263C877.119 81.0258 844.521 74.0674 813.873 71.4697C807.186 70.913 800.499 70.1708 793.812 69.4285C721.557 69.5213 649.394 69.5213 577.139 69.243C574.817 69.7996 572.588 70.4491 570.266 71.1913C539.897 81.3969 508.877 75.1808 478.229 76.2941C461.976 72.3974 445.537 71.5624 429.842 78.9847C425.941 80.8402 422.319 83.5308 418.604 86.4069C411.453 86.9636 404.302 86.8708 397.336 86.2213Z" fill="#620408"/>
<path d="M36.2446 33.8014C47.7609 32.9664 59.2771 32.6881 70.7935 32.5025C72.6509 33.152 74.4155 33.8014 76.2731 34.4509C88.1608 34.4509 100.049 34.6364 111.936 34.7292C115.651 34.2653 119.366 33.987 123.174 34.1725C125.867 34.2653 128.375 34.3581 130.975 34.3581C131.068 34.4509 131.254 34.5437 131.44 34.5437C145.928 38.3475 160.045 37.4198 174.719 35.5642C191.9 33.4303 207.874 33.8014 224.963 36.3992C258.305 41.502 292.018 36.2137 325.545 36.0281C343.191 35.9353 360.93 36.2137 378.576 36.8631C396.314 37.5125 413.217 34.5437 430.77 33.7087C455.66 32.5025 480.458 32.2242 505.348 33.152C527.823 35.8425 550.02 37.1414 573.517 36.1209C598.407 35.0075 623.482 35.9353 648.465 36.6775C657.753 35.7498 667.04 34.9148 676.234 34.0798C698.524 32.0387 720.814 29.5336 743.103 28.3275C763.071 27.2142 783.132 28.7914 803.099 28.6059C820.652 28.4203 838.02 30.3686 855.48 32.5953C871.547 32.317 887.707 31.9459 903.774 31.3892C920.77 30.7398 937.951 29.2553 955.04 29.5336C962.656 29.6264 970.178 30.4614 977.794 30.8325C988.474 31.3892 998.969 28.8842 1009.56 29.3481C1025.81 30.0903 1040.95 32.5025 1057.01 32.8737C1085.81 31.2964 1115.71 29.1625 1144.04 30.1831C1145.71 30.2759 1147.38 30.3686 1149.05 30.5542C1156.48 31.7603 1163.91 32.6881 1171.34 33.5231C1177.75 34.4509 1184.16 35.1931 1191.03 35.2859C1213.41 36.8631 1235.98 37.1414 1258.46 37.2342C1270.53 37.327 1282.6 37.327 1294.77 37.5125C1295.79 37.0487 1296.91 36.6775 1298.02 36.3064C1299.69 35.657 1301.74 36.3992 1303.69 37.6981C1309.91 37.8837 1316.04 38.0692 1322.17 38.4403C1343.71 39.6464 1364.98 42.7081 1386.34 45.4914C1416.53 49.4809 1446.71 51.7076 1477.08 53.0992C1468.63 52.9137 1460.27 52.6353 1451.82 52.1714C1450.89 52.1714 1450.05 52.1714 1449.13 52.1714C1422.38 52.1714 1395.91 51.4292 1369.35 51.1509C1367.49 51.1509 1366.56 50.8726 1366.28 50.5942C1348.08 50.687 1329.88 50.7798 1311.67 50.7798C1311.58 50.8726 1311.49 51.0581 1311.3 51.1509C1282.88 68.5004 1280.65 110.25 1278.7 140.218C1276.2 176.865 1277.5 213.79 1279.54 250.438C1279.54 250.716 1279.63 250.902 1279.54 251.087C1279.54 251.366 1279.54 251.737 1279.63 252.015C1280.75 271.127 1290.13 402.037 1264.87 398.975C1252.14 397.491 1251.68 363.905 1251.21 356.854C1249.17 325.031 1254.84 292.744 1258.09 261.2C1261.89 224.924 1261.43 189.112 1260.69 152.743C1260.04 118.693 1261.15 84.8293 1256.51 50.9653C1230.5 51.0581 1204.4 51.2437 1178.4 51.3364C1168.65 98.2821 1170.6 148.011 1168.18 195.699C1167.07 218.429 1166.23 241.067 1164.28 263.705C1163.54 272.797 1163.17 298.682 1151.28 301.558C1148.5 302.208 1146.08 299.517 1144.69 297.476C1132.06 278.735 1134.29 254.427 1133.73 232.81C1133.08 205.904 1135.77 178.72 1136.98 151.815C1138.37 119.157 1151.65 83.3448 1125.83 56.9031C1117.38 48.2748 1113.85 83.8087 1113.85 84.2726C1112.83 91.8804 1110.6 99.0243 1104.66 104.034C1103.73 104.777 1102.06 104.869 1101.04 104.313C1091.75 99.8593 1086.92 90.6743 1085.06 80.6543C1083.76 73.3248 1085.06 59.037 1079.95 51.6148C1031.29 51.7076 982.531 51.8931 933.772 51.9859C919.841 71.6548 921.977 95.1276 921.698 118.415C921.42 141.145 923.742 164.989 922.256 187.534C921.884 193.287 920.027 231.14 907.303 215.461C899.316 205.626 897.18 189.947 897.551 177.885C899.13 134.002 910.182 86.1282 861.145 64.4181C842.199 56.0681 809.043 44.6564 800.592 72.5826C796.227 87.1487 804.4 104.22 798.363 118.229C792.79 131.033 779.602 131.682 769.293 123.61C747.654 106.725 768.179 85.4787 757.591 66.7376C752.483 57.7381 717.563 54.9548 708.461 54.6765C694.809 54.2126 682.736 55.6042 668.898 53.2848C668.154 53.192 667.411 52.8209 666.668 52.2642C636.856 52.2642 607.044 52.2642 577.139 52.2642C574.817 52.4498 572.588 52.7281 570.266 53.0065C550.763 55.6042 539.804 53.0992 533.581 73.8815C524.015 105.704 530.331 140.31 531.259 172.875C532.559 216.574 533.767 260.272 535.624 303.971C536.553 324.011 539.061 512.443 511.384 503.814C490.023 497.227 491.045 456.776 490.952 440.169C490.859 397.583 494.11 355.277 497.825 312.877C501.54 270.385 498.382 229.006 498.103 186.607C498.103 181.504 498.103 176.494 498.196 171.391C496.339 154.32 494.76 137.249 494.017 119.899C494.481 113.59 491.324 109.044 484.451 106.168C482.222 109.23 482.501 115.168 482.315 118.786C481.851 127.878 482.408 137.063 482.036 146.248C481.108 171.205 478.229 196.163 476.928 221.027C476.092 238.284 478.693 261.757 467.269 275.952C466.434 276.972 464.576 276.508 463.647 276.23C437.829 268.808 445.444 217.409 447.023 198.297C449.066 173.896 453.153 150.145 452.596 125.559C452.317 113.869 450.181 102.457 447.952 91.0454C447.395 87.0559 446.93 82.9737 446.373 78.9843C444.144 60.9853 434.392 60.0576 422.319 58.1092C421.019 58.4803 419.718 58.8515 418.418 59.2226C411.267 59.5009 404.116 59.4081 397.15 59.2226C388.699 56.2537 382.198 55.697 374.861 56.7176C369.381 55.7898 363.901 55.1403 357.958 55.5115C357.679 55.5115 357.4 55.5114 357.215 55.6042C357.029 56.1609 356.75 56.6248 356.193 56.9959C342.726 64.6037 342.819 78.5204 342.448 92.437C342.076 108.395 341.24 124.26 340.497 140.218C340.126 147.454 342.076 180.112 329.817 180.947C314.865 181.875 313.843 155.712 313.657 146.248C313.378 132.332 315.515 118.508 317.465 104.776C320.158 86.4065 322.666 71.4692 310.871 58.8515C306.32 58.7587 301.769 58.6659 297.311 58.5731C290.996 58.0165 284.681 57.4598 278.272 57.0887C276.043 56.9959 273.907 56.9031 271.678 56.8103C269.171 56.4392 266.663 56.0681 264.063 55.5115C257.004 54.1198 249.482 52.4498 241.588 51.9859C234.343 51.6148 227.842 51.8931 221.155 53.0992C216.047 54.027 210.01 55.697 204.159 55.5115C198.773 55.4187 194.036 54.5837 189.114 53.8414C179.641 52.357 169.796 50.9653 159.58 50.5014C155.215 50.3159 150.757 50.1303 146.392 50.0376C141.563 49.6664 136.826 49.5737 131.997 49.4809C131.625 49.4809 131.161 49.3881 130.789 49.3881C129.489 49.2953 128.189 49.2026 127.075 49.1098C107.107 47.7181 86.9534 47.347 66.7998 46.8831C51.9402 46.512 37.0806 45.9553 22.2208 46.1409C6.89673 46.3264 -7.87024 46.512 -23.0085 45.3987C-3.04077 40.7598 16.2769 35.2859 36.2446 33.8014Z" fill="#B11313"/>
</g>
</g>
<defs>
<clipPath id="clip0_650_415">
<rect width="1440" height="46" fill="white"/>
</clipPath>
<clipPath id="clip1_650_415">
<rect width="1685" height="510" fill="white" transform="matrix(-1 0 0 1 1628 -6)"/>
</clipPath>
</defs>
</svg>
