<svg width="72" height="52" viewBox="0 0 72 52" fill="none" xmlns="http://www.w3.org/2000/svg">
<path d="M62.7619 6.40813C57.8463 2.54753 51.8533 0.308338 45.6105 -0.000244141L44.7569 0.976391C50.3135 2.45137 55.4937 5.08908 59.955 8.71514C54.2719 5.58243 48.0309 3.59178 41.5835 2.85533C37.4834 2.40377 33.344 2.44508 29.2538 2.97837L28.2285 3.10141C23.441 3.64749 18.7696 4.9451 14.3864 6.94643C12.1281 7.97177 10.7977 8.71514 10.7977 8.71514C15.4866 4.91245 20.9543 2.18734 26.8135 0.732873L26.2034 -0.000244141C19.9615 0.308862 13.9695 2.54803 9.05461 6.40813C3.46886 17.4504 0.46339 29.6169 0.264893 41.99C0.264893 41.99 5.39159 50.8386 18.8799 51.2667C18.8799 51.2667 21.1382 48.5214 22.9813 46.2015C18.69 45.1192 14.9117 42.5714 12.2998 38.9985L14.0096 40.0239L14.2659 40.2059L14.5043 40.3443L14.5761 40.3751L14.8145 40.5135C16.2501 41.3069 17.7387 42.0007 19.2696 42.5898C22.1739 43.7363 25.177 44.6149 28.2413 45.2147C33.461 46.2176 38.822 46.2385 44.0494 45.2762C47.0901 44.7441 50.0592 43.8633 52.8981 42.6513C55.3655 41.7238 57.72 40.5199 59.9166 39.0626C57.2062 42.7111 53.2928 45.2835 48.8685 46.3246C50.6988 48.6316 52.8956 51.2693 52.8956 51.2693C66.3839 50.8412 71.5721 41.9925 71.5721 41.9925C71.3676 29.617 68.3551 17.4495 62.7619 6.40813ZM24.4937 36.3147C22.7728 36.2328 21.1537 35.4754 19.988 34.207C18.8222 32.9385 18.2039 31.2614 18.2673 29.5398C18.2308 28.686 18.363 27.8334 18.6563 27.0307C18.9495 26.2281 19.3981 25.4911 19.9764 24.8619C20.5546 24.2327 21.2512 23.7236 22.0263 23.3638C22.8014 23.004 23.6398 22.8004 24.4937 22.7648C25.3492 22.7951 26.1903 22.995 26.9679 23.353C27.7456 23.711 28.4443 24.2199 29.0236 24.8502C29.6029 25.4806 30.0512 26.2197 30.3424 27.0248C30.6336 27.8298 30.762 28.6847 30.72 29.5398C30.7565 30.3936 30.6243 31.2461 30.331 32.0488C30.0378 32.8515 29.5892 33.5885 29.011 34.2177C28.4327 34.8469 27.7361 35.3559 26.961 35.7158C26.1859 36.0756 25.3475 36.2791 24.4937 36.3147ZM46.7692 36.3147C45.0483 36.2328 43.4292 35.4754 42.2635 34.207C41.0977 32.9385 40.4794 31.2614 40.5428 29.5398C40.5063 28.686 40.6385 27.8334 40.9318 27.0307C41.225 26.2281 41.6736 25.4911 42.2519 24.8619C42.8301 24.2327 43.5267 23.7236 44.3018 23.3638C45.0769 23.004 45.9153 22.8004 46.7692 22.7648C47.623 22.8004 48.4614 23.004 49.2365 23.3638C50.0116 23.7236 50.7082 24.2327 51.2865 24.8619C51.8647 25.4911 52.3133 26.2281 52.6065 27.0307C52.8998 27.8334 53.032 28.686 52.9955 29.5398C53.032 30.3936 52.8998 31.2461 52.6065 32.0488C52.3133 32.8515 51.8647 33.5885 51.2865 34.2177C50.7082 34.8469 50.0116 35.3559 49.2365 35.7158C48.4614 36.0756 47.623 36.2791 46.7692 36.3147Z" fill="white"/>
</svg>
