<svg width="393" height="98" viewBox="0 0 393 98" fill="none" xmlns="http://www.w3.org/2000/svg">
<g clip-path="url(#clip0_599_444)">
<path d="M492.073 50.1608C488.209 48.758 484.294 47.6058 480.63 45.4516C474.758 42.045 470.242 35.0814 464.972 30.222C453.128 19.3008 440.179 14.3912 427.532 26.0639C427.181 26.3645 426.88 26.6651 426.528 27.0158C424.571 29.17 422.714 31.3742 420.757 33.5785C418.85 35.7327 416.792 37.6364 414.433 38.5883C410.017 42.045 405.249 44.2493 399.728 42.9968C395.663 42.0951 392.301 39.991 389.038 37.2857C384.07 35.2818 379.754 30.9735 374.584 29.6709C369.515 28.4185 364.446 30.5226 359.679 32.5766C353.706 35.1816 347.333 34.3801 341.159 35.0814C335.438 35.7327 330.169 36.0333 324.447 35.382C318.776 34.7308 313.557 34.9812 307.885 35.6826C296.744 37.0853 285.552 37.4861 274.36 36.6345C268.94 36.2337 263.72 37.6364 258.35 38.1374C252.579 38.6885 247.309 36.0834 241.487 37.5863C239.731 38.0372 237.974 38.6384 236.167 38.9389C234.712 38.9389 233.206 38.9389 231.751 38.9389C229.191 38.2877 226.883 36.384 224.775 34.4302C219.857 29.9214 215.49 24.2604 210.572 19.7016C205.553 15.0425 199.932 11.5357 194.06 9.73218C187.486 7.77838 180.861 10.0328 174.638 12.9885C161.79 19.0503 150.698 29.7711 137.198 33.3781C126.859 36.1836 116.169 36.3339 105.63 37.0854C104.777 36.885 103.974 36.6846 103.121 36.4341C98.2525 35.0314 93.5851 32.6768 88.7671 31.0236C84.8525 29.721 81.2892 26.9657 77.2742 26.5649C67.2869 25.613 57.9018 33.1277 48.3662 35.5323C43.6486 36.6846 38.6299 36.4842 33.8621 36.4842C28.0905 36.4842 22.3692 36.885 16.5976 37.5362C13.486 37.8869 10.4246 38.3378 7.31293 38.7887C-4.73206 38.7887 -16.8272 38.7887 -28.8722 38.7887C-29.1733 38.6885 -29.4744 38.5883 -29.7755 38.4881C-34.2924 36.8349 -37.7553 32.0756 -42.3224 30.4224C-52.4101 26.8154 -61.8955 32.5265 -71.7322 35.0814C-78.8588 36.9351 -85.9352 37.2356 -93.0117 36.935C-102.597 31.8752 -112.836 27.2162 -122.974 30.5226C-128.143 32.2259 -133.413 33.0275 -138.632 34.1797C-144.855 35.5824 -151.38 36.9351 -157.703 37.2356C-161.317 37.3859 -164.88 38.1875 -168.493 38.7386C-181.091 38.7386 -193.738 38.7386 -206.335 38.7386C-207.74 38.5382 -209.145 38.3879 -210.551 38.2877C-216.272 37.937 -221.943 37.9871 -227.664 38.7386C-284.125 38.7386 -400.409 48.1569 -398.302 48.207C-372.254 48.9083 -346.257 49.3091 -320.21 49.6097C-345.755 49.5095 -371.652 49.259 -398.352 48.5576C-394.487 49.9604 -390.573 51.1126 -386.909 53.2668C-381.037 56.6734 -376.52 63.637 -371.251 68.4964C-359.406 79.4176 -346.458 84.3272 -333.811 72.6545C-333.46 72.3539 -333.158 72.0533 -332.807 71.7026C-330.85 69.5485 -328.993 67.3442 -327.036 65.1399C-325.128 62.9857 -323.071 61.082 -320.712 60.1301C-316.295 56.6734 -311.528 54.4691 -306.007 55.7216C-301.942 56.6233 -298.579 58.7274 -295.317 61.4327C-290.349 63.4366 -286.032 67.7449 -280.863 69.0475C-275.794 70.2999 -270.725 68.1958 -265.957 66.1418C-259.985 63.5368 -253.611 64.3383 -247.438 63.637C-241.717 62.9857 -236.447 62.6851 -230.726 63.3364C-225.055 63.9876 -219.835 63.7372 -214.164 63.0358C-203.022 61.6331 -191.831 61.2323 -180.639 62.0839C-175.219 62.4847 -169.999 61.082 -164.629 60.581C-158.858 60.0299 -153.588 62.635 -147.766 61.1321C-146.01 60.6812 -144.253 60.08 -142.446 59.7795C-140.991 59.7795 -139.485 59.7795 -138.03 59.7795C-135.47 60.4307 -133.162 62.3344 -131.054 64.2882C-126.135 68.797 -121.769 74.458 -116.851 79.0169C-111.832 83.6759 -106.211 87.1827 -100.339 88.9862C-93.7645 90.94 -87.1397 88.6856 -80.9165 85.7299C-68.0685 79.6681 -56.9771 68.9473 -43.4767 65.3403C-33.1381 62.5348 -22.4482 62.3845 -11.9088 61.6331C-11.0556 61.8334 -10.2526 62.0338 -9.39944 62.2843C-4.53125 63.6871 0.136169 66.0416 4.95416 67.6948C8.86877 68.9974 12.432 71.7527 16.4471 72.1535C26.4343 73.1054 35.8194 65.5908 45.355 63.1861C50.0726 62.0338 55.0913 62.2342 59.8592 62.2342C65.6307 62.2342 71.3521 61.8334 77.1236 61.1822C80.2353 60.8315 83.2967 60.3806 86.4083 59.9297C98.4533 59.9297 110.548 59.9297 122.593 59.9297C122.895 60.0299 123.196 60.1301 123.497 60.2303C128.014 61.8835 131.477 66.6428 136.044 68.296C146.131 71.903 155.617 66.1919 165.453 63.637C172.58 61.7834 179.656 61.4828 186.733 61.7834C196.319 66.8432 206.557 71.5022 216.695 68.1958C221.864 66.4925 227.134 65.691 232.353 64.5387C238.576 63.136 245.101 61.7834 251.424 61.4828C255.038 61.3325 258.601 60.5309 262.215 59.9799C274.812 59.9799 287.459 59.9799 300.056 59.9799C301.461 60.1802 302.867 60.3305 304.272 60.4307C309.993 60.7814 315.664 60.7313 321.386 59.9799C377.847 59.9799 494.131 50.5615 492.023 50.5115C465.976 49.8101 439.928 49.4093 413.931 49.1087C439.527 49.1588 465.424 49.4594 492.073 50.1608Z" fill="#600000"/>
<path d="M249.614 54.8089C254.179 53.8622 257.691 53.6629 261.655 54.0117C264.615 53.7127 267.575 53.5134 270.786 53.6131C276.004 53.8124 281.221 54.4103 286.389 54.7093C287.142 54.7591 287.844 54.8089 288.546 54.8089C293.463 54.6594 298.48 54.6096 303.497 54.5598C306.909 54.4103 310.321 54.211 313.782 54.1113C314.987 54.0615 316.14 54.0615 317.344 54.0117C318.699 53.912 320.054 53.7625 321.458 53.6131C325.271 53.1646 329.335 52.6165 333.6 52.4671C337.513 52.3176 341.025 52.4172 344.637 52.8159C347.397 53.1148 350.658 53.6629 353.819 53.6131C356.729 53.5632 359.287 53.3141 361.946 53.065C367.064 52.5667 372.382 52.1681 377.901 51.9688C380.259 51.919 382.667 51.8692 385.025 51.8193C387.634 51.7197 390.193 51.6699 392.802 51.6699C393.002 51.6699 393.253 51.6699 393.454 51.6699C394.156 51.62 394.859 51.62 395.461 51.5702C406.247 51.1218 417.134 51.0221 428.022 50.8726C436.049 50.773 444.076 50.5737 452.103 50.6235C460.633 50.6733 468.861 50.7231 477.289 50.3744C483.26 50.1252 489.18 49.7764 495.1 49.5771C484.414 49.328 473.627 48.1322 462.991 47.8332C451.351 47.4845 441.618 44.7938 429.928 45.7904C427.369 45.9897 425.262 46.5377 423.105 46.9862C416.683 46.9862 410.261 47.036 403.839 47.0858C401.832 46.9364 399.825 46.8367 397.768 46.8865C395.26 46.9364 392.802 46.9862 390.343 46.9862C384.022 47.6339 377.499 48.0824 371.629 47.2851C365.91 46.5378 361.645 44.4949 357.03 42.8008C355.775 43.3987 354.471 43.897 353.116 44.2956C350.608 46.0893 347.497 46.0893 342.229 46.2886C335.607 46.5377 329.135 46.9862 322.512 47.1855C314.736 47.4346 306.859 47.4346 299.032 47.6339C293.162 46.9862 287.443 46.0893 282.225 45.0928C281.472 44.9433 280.519 44.8437 279.466 44.744C278.863 44.6942 278.261 44.6942 277.609 44.6444C270.686 44.3952 265.167 46.2886 258.444 46.4879C253.628 46.6374 248.911 46.1391 244.246 45.6409C240.081 45.4914 235.917 45.4416 231.903 45.3419C228.141 45.2423 224.277 44.9931 220.464 44.8437C217.755 44.9433 215.096 45.1426 212.387 45.3419C211.785 45.3918 211.333 45.1426 211.233 44.8935C210.631 44.9433 210.029 44.9433 209.427 45.043C190.864 46.8367 173.404 48.0325 154.49 47.5343C141.044 47.1855 127.498 47.4844 114.002 47.6837C108.985 47.3848 103.968 47.0858 99.0007 46.8367C86.9597 46.189 74.9187 45.3918 62.8777 44.9931C52.091 44.6444 41.2541 45.1426 30.4673 45.0928C20.985 45.043 11.6031 45.6409 2.17096 46.3883C-6.50861 46.2886 -15.2384 46.189 -23.9179 45.9897C-33.0992 45.7904 -42.3808 45.2921 -51.6122 45.3917C-55.7263 45.4416 -59.7901 45.6907 -63.9041 45.7904C-69.6738 45.9398 -75.3431 45.1426 -81.0626 45.3419C-89.8425 45.5911 -98.0203 46.3384 -106.7 46.4381C-122.253 45.9398 -138.408 45.2423 -153.71 45.5911C-163.192 45.7904 -171.22 47.3848 -180.852 47.2353C-190.385 47.0858 -198.161 46.1391 -207.945 46.4381C-217.427 46.6872 -227.01 47.036 -236.492 47.4845C-238.047 47.4845 -239.653 47.4845 -241.208 47.4845C-258.617 47.6339 -276.027 48.3315 -293.386 49.1785C-317.468 49.2284 -341.6 49.2782 -365.682 49.3778C-371.552 49.4775 -377.472 49.627 -383.342 49.8263C-393.828 50.1751 -404.414 50.6733 -415 50.8228C-388.359 51.2214 -361.719 52.2678 -334.927 52.2179C-312.651 52.1681 -290.476 51.5702 -268.2 51.4207C-247.078 51.3211 -225.956 51.4705 -205.035 52.3176C-204.985 52.3176 -204.935 52.3176 -204.884 52.3176C-147.288 52.4671 -89.692 52.5667 -32.146 52.6165C-30.0388 52.7162 -27.9316 52.8657 -25.8244 53.0152C-9.36838 54.211 8.24161 53.2643 24.798 52.9653C28.4103 52.9155 32.0226 52.8158 35.6349 52.7162C74.6679 52.7162 113.651 52.7162 152.684 52.7162C153.938 52.766 155.142 52.8657 156.396 52.9653C172.802 54.3106 189.559 53.4636 206.116 53.6131C214.896 53.1148 223.776 53.0152 232.255 53.9619C234.362 54.211 236.318 54.5598 238.325 54.9085C241.988 54.9085 245.851 54.9085 249.614 54.8089Z" fill="#B52126"/>
</g>
<defs>
<clipPath id="clip0_599_444">
<rect width="393" height="98" fill="white"/>
</clipPath>
</defs>
</svg>
