<svg width="22" height="22" viewBox="0 0 22 22" fill="none" xmlns="http://www.w3.org/2000/svg">
<path d="M21 11C21 16.5228 16.5228 21 11 21C5.47715 21 1 16.5228 1 11C1 5.47715 5.47715 1 11 1C16.5228 1 21 5.47715 21 11Z" stroke="white" stroke-width="1.5"/>
<path d="M7.99976 10.9999C7.99976 11.5524 7.55188 12.0002 6.99939 12.0002C6.4469 12.0002 5.99902 11.5524 5.99902 10.9999C5.99902 10.4474 6.4469 9.99951 6.99939 9.99951C7.55188 9.99951 7.99976 10.4474 7.99976 10.9999Z" fill="white"/>
<path d="M12.0005 10.9999C12.0005 11.5524 11.5526 12.0002 11.0001 12.0002C10.4476 12.0002 9.99976 11.5524 9.99976 10.9999C9.99976 10.4474 10.4476 9.99951 11.0001 9.99951C11.5526 9.99951 12.0005 10.4474 12.0005 10.9999Z" fill="white"/>
<path d="M16.0012 10.9999C16.0012 11.5524 15.5533 12.0002 15.0009 12.0002C14.4484 12.0002 14.0005 11.5524 14.0005 10.9999C14.0005 10.4474 14.4484 9.99951 15.0009 9.99951C15.5533 9.99951 16.0012 10.4474 16.0012 10.9999Z" fill="white"/>
</svg>
