<svg width="63" height="52" viewBox="0 0 63 52" fill="none" xmlns="http://www.w3.org/2000/svg">
<path fill-rule="evenodd" clip-rule="evenodd" d="M47.8578 50.7008C48.2642 50.9903 48.7355 51.1756 49.2303 51.2404C49.7251 51.3052 50.2282 51.2476 50.6954 51.0725C51.16 50.8971 51.5732 50.6082 51.8974 50.232C52.2215 49.8559 52.4464 49.4046 52.5513 48.9193C54.7789 38.4506 60.1824 11.9532 62.21 2.43041C62.2848 2.07654 62.2623 1.70902 62.145 1.36691C62.0276 1.02479 61.8198 0.720852 61.5435 0.487392C61.2649 0.249975 60.9277 0.0914853 60.5671 0.0283789C60.2065 -0.0347275 59.8356 -0.000149477 59.4929 0.128523C48.7524 4.10171 15.6519 16.5263 2.12257 21.5325C1.7038 21.6835 1.34364 21.9634 1.09374 22.3318C0.843852 22.7002 0.717072 23.1383 0.73159 23.5833C0.746108 24.0282 0.901179 24.4571 1.17456 24.8085C1.44794 25.1598 1.82557 25.4156 2.2533 25.539C8.32074 27.3538 16.2851 29.8787 16.2851 29.8787C16.2851 29.8787 20.007 41.119 21.9475 46.8353C22.0614 47.1896 22.2616 47.51 22.5301 47.7677C22.7986 48.0254 23.1269 48.2124 23.4855 48.3118C23.8486 48.4062 24.2298 48.4071 24.5933 48.3143C24.9569 48.2215 25.291 48.0381 25.5644 47.7812L33.5108 40.2885C33.5108 40.2885 42.667 47.0019 47.8655 50.7008H47.8578ZM19.6354 28.4535L23.9392 42.6545L24.8954 33.6648L51.0031 10.1179C51.1371 9.99758 51.2204 9.83083 51.2361 9.6514C51.2518 9.47197 51.1987 9.29328 51.0876 9.15151C50.976 9.00942 50.8155 8.91393 50.6374 8.88361C50.4592 8.85329 50.2762 8.8903 50.1238 8.98745L19.6354 28.4535Z" fill="white"/>
</svg>
