<svg width="64" height="52" viewBox="0 0 64 52" fill="none" xmlns="http://www.w3.org/2000/svg">
<path d="M63.5833 6.06851C61.2212 7.11513 58.7154 7.80155 56.1495 8.10486C58.8534 6.48849 60.8762 3.94279 61.8397 0.943583C59.2992 2.45135 56.5196 3.51384 53.6211 4.08516C51.6714 2.00626 49.0903 0.628669 46.2779 0.165955C43.4656 -0.296759 40.5791 0.181255 38.0661 1.52589C35.5531 2.87052 33.5539 5.00666 32.3784 7.60311C31.2029 10.1996 30.9168 13.1113 31.5645 15.8869C26.4196 15.6293 21.3863 14.2928 16.7913 11.964C12.1963 9.63525 8.14242 6.36627 4.89267 2.36928C3.23817 5.21864 2.73107 8.59121 3.47449 11.8011C4.21791 15.011 6.15603 17.8173 8.89471 19.6492C6.84039 19.5842 4.83142 19.0287 3.03548 18.0292C2.99841 21.0453 4.01516 23.9798 5.91032 26.3264C7.80548 28.673 10.4602 30.2846 13.4166 30.8832C11.5098 31.4006 9.51011 31.4757 7.56995 31.1027C8.39677 33.6744 10.007 35.9231 12.1751 37.5343C14.3433 39.1456 16.961 40.0386 19.6619 40.0884C14.2373 44.3445 7.34543 46.274 0.499512 45.453C6.41832 49.2515 13.3053 51.2662 20.3381 51.2567C25.3233 51.2884 30.2624 50.3015 34.8525 48.3564C39.4427 46.4113 43.5871 43.5491 47.0317 39.9452C50.4763 36.3414 53.1484 32.0719 54.8842 27.3986C56.62 22.7253 57.3829 17.7467 57.1261 12.768C59.6589 10.9356 61.8454 8.66706 63.5833 6.06851Z" fill="white"/>
</svg>
